<svg width="64" height="64" viewBox="0 0 64 64" fill="none" xmlns="http://www.w3.org/2000/svg">
<path d="M41.3333 22.6667H41.36M28 20H28.0267M20 30.6667H20.0267M32 56C18.7452 56 8 45.2549 8 32C8 18.7452 18.7452 8 32 8C45.2549 8 56 18.7452 56 32C56 36.4184 52.4184 40 48 40H46.4C45.4091 40 44.9136 40 44.4989 40.0656C42.2168 40.4272 40.4272 42.2168 40.0656 44.4989C40 44.9136 40 45.4091 40 46.4V48C40 52.4184 36.4184 56 32 56ZM42.6667 22.6667C42.6667 23.403 42.0696 24 41.3333 24C40.5971 24 40 23.403 40 22.6667C40 21.9303 40.5971 21.3333 41.3333 21.3333C42.0696 21.3333 42.6667 21.9303 42.6667 22.6667ZM29.3333 20C29.3333 20.7364 28.7363 21.3333 28 21.3333C27.2637 21.3333 26.6667 20.7364 26.6667 20C26.6667 19.2636 27.2637 18.6667 28 18.6667C28.7363 18.6667 29.3333 19.2636 29.3333 20ZM21.3333 30.6667C21.3333 31.4029 20.7364 32 20 32C19.2636 32 18.6667 31.4029 18.6667 30.6667C18.6667 29.9304 19.2636 29.3333 20 29.3333C20.7364 29.3333 21.3333 29.9304 21.3333 30.6667Z" stroke="black" stroke-width="5.33333" stroke-linecap="round" stroke-linejoin="round"/>
</svg>
